# xmcd
#
# Track frame offsets: 
#        150
#        18962
#        35852
#        48527
#        61639
#        76265
#        92357
#        106815
#        123105
#        138785
#        162297
#        176760
#        195407
#        215330
#        226100
#        242705
#        257977
#        271037
#        287997
#        298622
#
# Disc length: 4194 seconds
#
# Revision: 4
# Processed by: cddbd v1.5.2PL0 Copyright (c) Steve Scherf et al.
# Submitted via: ExactAudioCopyFreeDBPlugin 1.0
#
DISCID=0c106014
DTITLE=Various Artist - Vánoční album hvězd
DYEAR=2003
DGENRE=Pop
TTITLE0=Naďa Urbánková a Jiří Suchý - Purpura
TTITLE1=Karel Gott - Dny dárků a přání
TTITLE2=Helena Vondráčková - Bílé Vánoce
TTITLE3=Karel Černoch - Tvé přání
TTITLE4=Hana Zagorová a Petr Rezek - Vánoční Tajemství
TTITLE5=Hana Hegerová - Co je toho příčinou
TTITLE6=Jitka Zelenková - Zvonky
TTITLE7=Karel Gott - Alžbětínská serenáda
TTITLE8=Marie Rottrová - Skořápky ořechů
TTITLE9=Bára Basiková a Petr Muk - O lidech
TTITLE10=Petra Janů - O Vánocích
TTITLE11=Ivan Mládek - Vánoce v Ďáblicích
TTITLE12=Helena Vondráčková - Na Vánoce k našim
TTITLE13=Olympic - Vůně Vánoc
TTITLE14=Věra Martinová - Pár havraních copánků
TTITLE15=Karel Gott - Už z hor zní zvon
TTITLE16=Leona Machálková a Petr Kotvald - Vždyť jsou Vánoce
TTITLE17=Iveta Bartošová - Tři oříšky
TTITLE18=Hana Zagorová - Jen jedenkrát v roce
TTITLE19=Lucie Bílá a Karel Gott - Tichá noc
EXTD=
EXTT0=
EXTT1=
EXTT2=
EXTT3=
EXTT4=
EXTT5=
EXTT6=
EXTT7=
EXTT8=
EXTT9=
EXTT10=
EXTT11=
EXTT12=
EXTT13=
EXTT14=
EXTT15=
EXTT16=
EXTT17=
EXTT18=
EXTT19=
PLAYORDER=
